<svg xmlns="http://www.w3.org/2000/svg" version="1.1" xmlns:xlink="http://www.w3.org/1999/xlink" xmlns:svgjs="http://svgjs.dev/svgjs" viewBox="0 0 2400 800"><defs><linearGradient x1="50%" y1="0%" x2="50%" y2="100%" id="sssurf-grad"><stop stop-color="hsl(208, 77%, 50%)" stop-opacity="1" offset="0%"></stop><stop stop-color="hsl(208, 74%, 93%)" stop-opacity="1" offset="100%"></stop></linearGradient></defs><g fill="url(#sssurf-grad)" transform="matrix(1,0,0,1,0,-2.301849365234375)"><path d="M 0 372.4037189718447 Q 600 578.9254250676515 800 340.62714053929346 Q 1400 525.6026260958685 1600 354.06649696318686 Q 2200 607.2518799582797 2400 294.2926226377839 L 2400 800 L 0 800 L 0 288.6037288511186 Z" transform="matrix(1,0,0,1,0,29)" opacity="0.05"></path><path d="M 0 372.4037189718447 Q 600 578.9254250676515 800 340.62714053929346 Q 1400 525.6026260958685 1600 354.06649696318686 Q 2200 607.2518799582797 2400 294.2926226377839 L 2400 800 L 0 800 L 0 288.6037288511186 Z" transform="matrix(1,0,0,1,0,58)" opacity="0.53"></path><path d="M 0 372.4037189718447 Q 600 578.9254250676515 800 340.62714053929346 Q 1400 525.6026260958685 1600 354.06649696318686 Q 2200 607.2518799582797 2400 294.2926226377839 L 2400 800 L 0 800 L 0 288.6037288511186 Z" transform="matrix(1,0,0,1,0,87)" opacity="1.00"></path></g></svg>